<?xml version="1.0" encoding="UTF-8" standalone="no"?>
<!DOCTYPE svg PUBLIC "-//W3C//DTD SVG 1.1//EN" "http://www.w3.org/Graphics/SVG/1.1/DTD/svg11.dtd">
<svg width="100%" height="100%" viewBox="0 0 1080 1080" version="1.1" xmlns="http://www.w3.org/2000/svg" xmlns:xlink="http://www.w3.org/1999/xlink" xml:space="preserve" xmlns:serif="http://www.serif.com/" style="fill-rule:evenodd;clip-rule:evenodd;stroke-linejoin:round;stroke-miterlimit:2;">
    <g>
        <path d="M425.63,538.12C420.81,533.3 420.81,525.49 425.63,520.67L615.83,330.47C620.65,325.65 628.46,325.65 633.28,330.47C638.1,335.29 638.1,343.1 633.28,347.92L443.08,538.12C438.26,542.94 430.44,542.94 425.63,538.12ZM377.78,585.97C372.96,581.15 365.14,581.15 360.33,585.97L271.15,675.15L271.15,710.05L377.78,603.42C380.18,601.01 381.39,597.85 381.39,594.69C381.39,591.54 380.18,588.38 377.78,585.97ZM754.95,193.95L753.65,192.65L681.13,265.17C676.31,269.99 676.31,277.8 681.13,282.62C685.94,287.44 693.76,287.44 698.58,282.62L771.11,210.09L754.95,193.95ZM741.7,692.8L732.45,683.55L724.25,675.34L652.27,747.32C647.46,752.14 647.46,759.95 652.27,764.77L652.28,764.77C657.09,769.59 664.91,769.59 669.73,764.77L741.7,692.8ZM604.43,812.62C599.61,807.8 591.79,807.8 586.97,812.62L478.74,920.85L513.65,920.85L604.43,830.07C609.24,825.25 609.24,817.44 604.43,812.62ZM333.95,159.15L271.15,221.95L271.15,256.85L368.85,159.15L333.95,159.15ZM428.8,779L619,588.8C623.82,583.98 623.82,576.17 619,571.35C614.18,566.53 606.37,566.53 601.55,571.35L411.35,761.55C406.53,766.37 406.53,774.18 411.35,779C416.17,783.82 423.98,783.82 428.8,779ZM363.5,826.85C358.68,822.03 350.87,822.03 346.05,826.85L271.15,901.75L271.15,920.85L286.95,920.85L363.5,844.3C365.91,841.89 367.12,838.73 367.12,835.57C367.12,832.41 365.91,829.25 363.5,826.85ZM666.85,506.05C662.03,510.86 662.03,518.68 666.85,523.5C671.67,528.31 679.48,528.31 684.3,523.5L808.85,398.95L808.85,364.05L666.85,506.05ZM705.35,920.85L740.25,920.85L808.75,852.35L808.75,817.45L705.35,920.85ZM392.4,344.75C387.58,339.93 379.77,339.93 374.95,344.75L271.15,448.55L271.15,483.45L392.4,362.2C394.81,359.79 396.02,356.63 396.02,353.47C396.02,350.31 394.81,347.15 392.4,344.75ZM560.55,159.15L440.25,279.45C435.43,284.26 435.43,292.08 440.25,296.9C445.07,301.71 452.88,301.71 457.7,296.9L595.45,159.15L560.55,159.15Z" style="fill:rgb(245,245,245);fill-rule:nonzero;"/>
        <path d="M943.25,192.15L775.85,24.75L136.75,24.75L136.75,1055.25L943.25,1055.25L943.25,704.15L843.05,603.95L943.25,503.75L943.25,192.15ZM808.85,448.15L652.95,603.95L732.45,683.55L808.75,759.85L808.75,920.85L271.15,920.85L271.15,159.15L720.15,159.15L754.95,193.95L808.85,247.75L808.85,448.15Z" style="fill:url(#_Linear1);fill-rule:nonzero;"/>
    </g>
    <defs>
        <linearGradient id="_Linear1" x1="0" y1="0" x2="1" y2="0" gradientUnits="userSpaceOnUse" gradientTransform="matrix(806.5,0,0,806.5,136.75,540)"><stop offset="0" style="stop-color:rgb(255,44,85);stop-opacity:1"/><stop offset="1" style="stop-color:rgb(253,78,75);stop-opacity:1"/></linearGradient>
    </defs>
</svg>
