<?xml version="1.0" encoding="utf-8"?>
<!-- Generator: Adobe Illustrator 27.5.0, SVG Export Plug-In . SVG Version: 6.00 Build 0)  -->
<svg version="1.1" id="Layer_1" xmlns="http://www.w3.org/2000/svg" xmlns:xlink="http://www.w3.org/1999/xlink" x="0px" y="0px"
	 viewBox="0 0 1000 272.7" style="enable-background:new 0 0 1000 272.7;" xml:space="preserve">
<style type="text/css">
	.st0{fill:#262626;}
	.st1{fill:#CC2B4A;}
	.st2{fill-rule:evenodd;clip-rule:evenodd;fill:#662834;}
	.st3{fill:#C42A48;}
	.st4{fill-rule:evenodd;clip-rule:evenodd;fill:#EA2B51;}
	.st5{fill:#672834;}
	.st6{fill:#C02A47;}
	.st7{fill-rule:evenodd;clip-rule:evenodd;fill:#F32C52;}
	.st8{fill-rule:evenodd;clip-rule:evenodd;fill:#6E2836;}
	.st9{fill:#C22A48;}
	.st10{fill:#6A2835;}
	.st11{fill-rule:evenodd;clip-rule:evenodd;fill:#7E2839;}
	.st12{fill:#592731;}
	.st13{fill:#8F293D;}
	.st14{fill:#5F2832;}
	.st15{fill-rule:evenodd;clip-rule:evenodd;fill:#592731;}
	.st16{fill:#BB2A46;}
	.st17{fill:#E92B50;}
	.st18{fill-rule:evenodd;clip-rule:evenodd;fill:#B42A45;}
	.st19{fill:#3D272B;}
	.st20{fill:#99293F;}
	.st21{fill:#522730;}
	.st22{fill-rule:evenodd;clip-rule:evenodd;fill:#D92B4D;}
	.st23{fill-rule:evenodd;clip-rule:evenodd;fill:#3E272B;}
	.st24{fill:#782838;}
	.st25{fill:#45272D;}
	.st26{fill:#C12A48;}
	.st27{fill:#C52A48;}
	.st28{fill:#662834;}
	.st29{fill:#B32A45;}
	.st30{fill-rule:evenodd;clip-rule:evenodd;fill:#98293F;}
	.st31{fill:#E22B4F;}
	.st32{fill:#FA2C54;}
	.st33{fill:#CE2B4A;}
	.st34{fill:#802839;}
	.st35{fill:#D12B4B;}
	.st36{fill:#8C293C;}
	.st37{fill-rule:evenodd;clip-rule:evenodd;fill:#F52C53;}
	.st38{fill:#742837;}
	.st39{fill-rule:evenodd;clip-rule:evenodd;fill:#B52A45;}
	.st40{fill:#CB2B4A;}
	.st41{fill:#D52B4C;}
	.st42{fill-rule:evenodd;clip-rule:evenodd;fill:#BC2A47;}
	.st43{fill:#80283A;}
	.st44{fill:#D02B4B;}
</style>
<g transform="scale(0.6622516556291391)">
	<rect y="0" class="st0" width="1510" height="411.8"/>
	<g transform="translate(0,0) scale(6.8635) rotate(0)">
		<path class="st1" d="M5,0h5L5,5l-5,5V5L5,0z"/>
		<path class="st1" d="M20,15v5h-5L20,15z"/>
		<path class="st1" d="M20,5v5l-5,5l-5,5H5L20,5z"/>
		<path class="st1" d="M15,0h5L5,15l-5,5v-5L15,0z"/>
	</g>
	<g transform="translate(137.27,0) scale(6.8635) rotate(0)">
		<path class="st2" d="M10,20c5.5,0,10-4.5,10-10c0-5.5-4.5-10-10-10C4.5,0,0,4.5,0,10C0,15.5,4.5,20,10,20z M10,17c3.9,0,7-3.1,7-7
			c0-3.9-3.1-7-7-7c-3.9,0-7,3.1-7,7C3,13.9,6.1,17,10,17z"/>
	</g>
	<rect x="274.5" y="0" class="st0" width="137.3" height="137.3"/>
	<rect x="274.5" class="st3" width="68.6" height="68.6"/>
	<g transform="translate(343.18,0) scale(3.432) rotate(0)">
		<path class="st4" d="M10,20c5.5,0,10-4.5,10-10c0-5.5-4.5-10-10-10C4.5,0,0,4.5,0,10C0,15.5,4.5,20,10,20z M10,17c3.9,0,7-3.1,7-7
			c0-3.9-3.1-7-7-7c-3.9,0-7,3.1-7,7C3,13.9,6.1,17,10,17z"/>
	</g>
	<g transform="translate(274.55,68.64) scale(3.432) rotate(0)">
		<path class="st5" d="M5,0h5L5,5l-5,5V5L5,0z"/>
		<path class="st5" d="M20,15v5h-5L20,15z"/>
		<path class="st5" d="M20,5v5l-5,5l-5,5H5L20,5z"/>
		<path class="st5" d="M15,0h5L5,15l-5,5v-5L15,0z"/>
	</g>
	<g transform="translate(343.18,68.64) scale(3.432) rotate(0)">
		<path class="st6" d="M10,0h10L0,20V10L10,0z"/>
		<path class="st6" d="M20,10v10H10L20,10z"/>
	</g>
	<g transform="translate(411.82,0) scale(6.8635) rotate(0)">
		<path class="st7" d="M10,20c5.5,0,10-4.5,10-10c0-5.5-4.5-10-10-10C4.5,0,0,4.5,0,10C0,15.5,4.5,20,10,20z M10,17c3.9,0,7-3.1,7-7
			c0-3.9-3.1-7-7-7c-3.9,0-7,3.1-7,7C3,13.9,6.1,17,10,17z"/>
	</g>
	<g transform="translate(549.09,0) scale(6.8635) rotate(0)">
		<path class="st8" d="M10,20c5.5,0,10-4.5,10-10c0-5.5-4.5-10-10-10C4.5,0,0,4.5,0,10C0,15.5,4.5,20,10,20z M10,17c3.9,0,7-3.1,7-7
			c0-3.9-3.1-7-7-7c-3.9,0-7,3.1-7,7C3,13.9,6.1,17,10,17z"/>
	</g>
	<rect x="686.4" y="0" class="st9" width="137.3" height="137.3"/>
	<g transform="translate(823.64,0) scale(6.8635) rotate(0)">
		<path class="st10" d="M10,0h10L0,20V10L10,0z"/>
		<path class="st10" d="M20,10v10H10L20,10z"/>
	</g>
	<g transform="translate(960.91,0) scale(6.8635) rotate(0)">
		<path class="st11" d="M10,20c5.5,0,10-4.5,10-10c0-5.5-4.5-10-10-10C4.5,0,0,4.5,0,10C0,15.5,4.5,20,10,20z M10,17
			c3.9,0,7-3.1,7-7c0-3.9-3.1-7-7-7c-3.9,0-7,3.1-7,7C3,13.9,6.1,17,10,17z"/>
	</g>
	<rect x="1098.2" y="0" class="st12" width="137.3" height="137.3"/>
	<g transform="translate(1235.45,0) scale(6.8635) rotate(0)">
		<path class="st13" d="M5,0h5L5,5l-5,5V5L5,0z"/>
		<path class="st13" d="M20,15v5h-5L20,15z"/>
		<path class="st13" d="M20,5v5l-5,5l-5,5H5L20,5z"/>
		<path class="st13" d="M15,0h5L5,15l-5,5v-5L15,0z"/>
	</g>
	<g transform="translate(1372.73,0) scale(6.8635) rotate(0)">
		<path class="st14" d="M5,0h5L5,5l-5,5V5L5,0z"/>
		<path class="st14" d="M20,15v5h-5L20,15z"/>
		<path class="st14" d="M20,5v5l-5,5l-5,5H5L20,5z"/>
		<path class="st14" d="M15,0h5L5,15l-5,5v-5L15,0z"/>
	</g>
	<g transform="translate(0,137.27) scale(6.8635) rotate(0)">
		<path class="st15" d="M10,20c5.5,0,10-4.5,10-10c0-5.5-4.5-10-10-10C4.5,0,0,4.5,0,10C0,15.5,4.5,20,10,20z M10,17
			c3.9,0,7-3.1,7-7c0-3.9-3.1-7-7-7c-3.9,0-7,3.1-7,7C3,13.9,6.1,17,10,17z"/>
	</g>
	<g transform="translate(137.27,137.27) scale(6.8635) rotate(0)">
		<path class="st16" d="M5,0h5L5,5l-5,5V5L5,0z"/>
		<path class="st16" d="M20,15v5h-5L20,15z"/>
		<path class="st16" d="M20,5v5l-5,5l-5,5H5L20,5z"/>
		<path class="st16" d="M15,0h5L5,15l-5,5v-5L15,0z"/>
	</g>
	<rect x="274.5" y="137.3" class="st17" width="137.3" height="137.3"/>
	<g transform="translate(411.82,137.27) scale(6.8635) rotate(0)">
		<path class="st18" d="M10,20c5.5,0,10-4.5,10-10c0-5.5-4.5-10-10-10C4.5,0,0,4.5,0,10C0,15.5,4.5,20,10,20z M10,17
			c3.9,0,7-3.1,7-7c0-3.9-3.1-7-7-7c-3.9,0-7,3.1-7,7C3,13.9,6.1,17,10,17z"/>
	</g>
	<rect x="549.1" y="137.3" class="st19" width="137.3" height="137.3"/>
	<g transform="translate(686.36,137.27) scale(6.8635) rotate(0)">
		<path class="st20" d="M10,0h10L0,20V10L10,0z"/>
		<path class="st20" d="M20,10v10H10L20,10z"/>
	</g>
	<rect x="823.6" y="137.3" class="st0" width="137.3" height="137.3"/>
	<g transform="translate(823.64,137.27) scale(3.432) rotate(0)">
		<path class="st21" d="M10,0h10L0,20V10L10,0z"/>
		<path class="st21" d="M20,10v10H10L20,10z"/>
	</g>
	<g transform="translate(892.27,137.27) scale(3.432) rotate(0)">
		<path class="st22" d="M10,20c5.5,0,10-4.5,10-10c0-5.5-4.5-10-10-10C4.5,0,0,4.5,0,10C0,15.5,4.5,20,10,20z M10,17
			c3.9,0,7-3.1,7-7c0-3.9-3.1-7-7-7c-3.9,0-7,3.1-7,7C3,13.9,6.1,17,10,17z"/>
	</g>
	<g transform="translate(823.64,205.91) scale(3.432) rotate(0)">
		<path class="st23" d="M10,20c5.5,0,10-4.5,10-10c0-5.5-4.5-10-10-10C4.5,0,0,4.5,0,10C0,15.5,4.5,20,10,20z M10,17
			c3.9,0,7-3.1,7-7c0-3.9-3.1-7-7-7c-3.9,0-7,3.1-7,7C3,13.9,6.1,17,10,17z"/>
	</g>
	<g transform="translate(892.27,205.91) scale(3.432) rotate(0)">
		<path class="st24" d="M10,0h10L0,20V10L10,0z"/>
		<path class="st24" d="M20,10v10H10L20,10z"/>
	</g>
	<rect x="960.9" y="137.3" class="st17" width="137.3" height="137.3"/>
	<g transform="translate(1098.18,137.27) scale(6.8635) rotate(0)">
		<path class="st25" d="M10,0h10L0,20V10L10,0z"/>
		<path class="st25" d="M20,10v10H10L20,10z"/>
	</g>
	<g transform="translate(1235.45,137.27) scale(6.8635) rotate(0)">
		<path class="st26" d="M5,0h5L5,5l-5,5V5L5,0z"/>
		<path class="st26" d="M20,15v5h-5L20,15z"/>
		<path class="st26" d="M20,5v5l-5,5l-5,5H5L20,5z"/>
		<path class="st26" d="M15,0h5L5,15l-5,5v-5L15,0z"/>
	</g>
	<g transform="translate(1372.73,137.27) scale(6.8635) rotate(0)">
		<path class="st27" d="M5,0h5L5,5l-5,5V5L5,0z"/>
		<path class="st27" d="M20,15v5h-5L20,15z"/>
		<path class="st27" d="M20,5v5l-5,5l-5,5H5L20,5z"/>
		<path class="st27" d="M15,0h5L5,15l-5,5v-5L15,0z"/>
	</g>
	<rect x="0" y="274.5" class="st0" width="137.3" height="137.3"/>
	<rect x="0" y="274.5" class="st28" width="68.6" height="68.6"/>
	<rect x="68.6" y="274.5" class="st29" width="68.6" height="68.6"/>
	<g transform="translate(0,343.18) scale(3.432) rotate(0)">
		<path class="st30" d="M10,20c5.5,0,10-4.5,10-10c0-5.5-4.5-10-10-10C4.5,0,0,4.5,0,10C0,15.5,4.5,20,10,20z M10,17
			c3.9,0,7-3.1,7-7c0-3.9-3.1-7-7-7c-3.9,0-7,3.1-7,7C3,13.9,6.1,17,10,17z"/>
	</g>
	<g transform="translate(68.64,343.18) scale(3.432) rotate(0)">
		<path class="st5" d="M10,0h10L0,20V10L10,0z"/>
		<path class="st5" d="M20,10v10H10L20,10z"/>
	</g>
	<g transform="translate(137.27,274.55) scale(6.8635) rotate(0)">
		<path class="st17" d="M10,0h10L0,20V10L10,0z"/>
		<path class="st17" d="M20,10v10H10L20,10z"/>
	</g>
	<rect x="274.5" y="274.5" class="st3" width="137.3" height="137.3"/>
	<g transform="translate(411.82,274.55) scale(6.8635) rotate(0)">
		<path class="st31" d="M5,0h5L5,5l-5,5V5L5,0z"/>
		<path class="st31" d="M20,15v5h-5L20,15z"/>
		<path class="st31" d="M20,5v5l-5,5l-5,5H5L20,5z"/>
		<path class="st31" d="M15,0h5L5,15l-5,5v-5L15,0z"/>
	</g>
	<rect x="549.1" y="274.5" class="st32" width="137.3" height="137.3"/>
	<rect x="686.4" y="274.5" class="st0" width="137.3" height="137.3"/>
	<g transform="translate(686.36,274.55) scale(3.432) rotate(0)">
		<path class="st33" d="M10,0h10L0,20V10L10,0z"/>
		<path class="st33" d="M20,10v10H10L20,10z"/>
	</g>
	<g transform="translate(755,274.55) scale(3.432) rotate(0)">
		<path class="st34" d="M10,0h10L0,20V10L10,0z"/>
		<path class="st34" d="M20,10v10H10L20,10z"/>
	</g>
	<g transform="translate(686.36,343.18) scale(3.432) rotate(0)">
		<path class="st35" d="M10,0h10L0,20V10L10,0z"/>
		<path class="st35" d="M20,10v10H10L20,10z"/>
	</g>
	<g transform="translate(755,343.18) scale(3.432) rotate(0)">
		<path class="st36" d="M5,0h5L5,5l-5,5V5L5,0z"/>
		<path class="st36" d="M20,15v5h-5L20,15z"/>
		<path class="st36" d="M20,5v5l-5,5l-5,5H5L20,5z"/>
		<path class="st36" d="M15,0h5L5,15l-5,5v-5L15,0z"/>
	</g>
	<g transform="translate(823.64,274.55) scale(6.8635) rotate(0)">
		<path class="st37" d="M10,20c5.5,0,10-4.5,10-10c0-5.5-4.5-10-10-10C4.5,0,0,4.5,0,10C0,15.5,4.5,20,10,20z M10,17
			c3.9,0,7-3.1,7-7c0-3.9-3.1-7-7-7c-3.9,0-7,3.1-7,7C3,13.9,6.1,17,10,17z"/>
	</g>
	<rect x="960.9" y="274.5" class="st38" width="137.3" height="137.3"/>
	<g transform="translate(1098.18,274.55) scale(6.8635) rotate(0)">
		<path class="st39" d="M10,20c5.5,0,10-4.5,10-10c0-5.5-4.5-10-10-10C4.5,0,0,4.5,0,10C0,15.5,4.5,20,10,20z M10,17
			c3.9,0,7-3.1,7-7c0-3.9-3.1-7-7-7c-3.9,0-7,3.1-7,7C3,13.9,6.1,17,10,17z"/>
	</g>
	<rect x="1235.5" y="274.5" class="st0" width="137.3" height="137.3"/>
	<rect x="1235.4" y="274.5" class="st33" width="68.6" height="68.6"/>
	<rect x="1304.1" y="274.5" class="st40" width="68.6" height="68.6"/>
	<g transform="translate(1235.45,343.18) scale(3.432) rotate(0)">
		<path class="st25" d="M10,0h10L0,20V10L10,0z"/>
		<path class="st25" d="M20,10v10H10L20,10z"/>
	</g>
	<g transform="translate(1304.09,343.18) scale(3.432) rotate(0)">
		<path class="st41" d="M10,0h10L0,20V10L10,0z"/>
		<path class="st41" d="M20,10v10H10L20,10z"/>
	</g>
	<rect x="1372.7" y="274.5" class="st0" width="137.3" height="137.3"/>
	<g transform="translate(1372.73,274.55) scale(3.432) rotate(0)">
		<path class="st42" d="M10,20c5.5,0,10-4.5,10-10c0-5.5-4.5-10-10-10C4.5,0,0,4.5,0,10C0,15.5,4.5,20,10,20z M10,17
			c3.9,0,7-3.1,7-7c0-3.9-3.1-7-7-7c-3.9,0-7,3.1-7,7C3,13.9,6.1,17,10,17z"/>
	</g>
	<rect x="1441.4" y="274.5" class="st43" width="68.6" height="68.6"/>
	<g transform="translate(1372.73,343.18) scale(3.432) rotate(0)">
		<path class="st44" d="M5,0h5L5,5l-5,5V5L5,0z"/>
		<path class="st44" d="M20,15v5h-5L20,15z"/>
		<path class="st44" d="M20,5v5l-5,5l-5,5H5L20,5z"/>
		<path class="st44" d="M15,0h5L5,15l-5,5v-5L15,0z"/>
	</g>
	<g transform="translate(1441.36,343.18) scale(3.432) rotate(0)">
		<path class="st20" d="M10,0h10L0,20V10L10,0z"/>
		<path class="st20" d="M20,10v10H10L20,10z"/>
	</g>
</g>
</svg>
